<svg xmlns="http://www.w3.org/2000/svg" width="600" height="1191.385" viewBox="0 0 600 1191.385"><path d="M57.74 604.375V277.861h484.477L600 220.083v-.048H0v365.248c.01 68.765 17.944 132.589 44.993 189.803l39.424-39.425c-16.349-40.381-26.671-84.41-26.677-131.286" fill="#a9bbd3"/><path d="M257.404 646.052h6.988l.989-5.206h6.898l.888 5.206h7.095l-6.25-34.706H263.6l-6.195 34.706zm11.402-24.495l2.234 12.349h-4.468l2.234-12.35zM208.663 426.49v-1.66h-24.086c-.574 0-1.069.314-1.361.766l-.022-.75-.064.862-.196.66-2.106 32.675-.282 4.063a1.648 1.648 0 0 0 1.643 1.755h2.292l-.048-1.415.032-.096c2.441-23.453 15.53-33.43 24.198-36.86zm223.531 132.235c27.687 0 41.334-17.14 47.593-29.559.857-1.707-1.404-3.207-2.675-1.782-24.985 28.054-78.832 28.245-83.065-34.595-3.452-48.683 20.161-63.941 31.244-68.483v-1.09c-18.528 2.903-53.953 15.62-53.953 69.387 0 44.508 36.148 66.122 60.856 66.122zm49.506-87.432l2.026-30.399c.037-.505-.16-.99-.537-1.319-2.91-2.547-16.338-13.498-35.558-16.54v1.266c11.955 4.824 29.878 17.534 30.846 46.923.026.872.728 1.58 1.606 1.58.856 0 1.558-.66 1.617-1.51zM335.22 646.05v-34.707h-6.941v34.707h6.94zm34.727 49.46H230.045v2.1h139.902v-2.1zM303.7 772.457c0 6.164 4.701 11.259 10.753 11.764l1.006.053c6.44 0 11.705-5.318 11.705-11.817V770.5c0-3.026-1.175-5.882-3.25-8.121 1.511-1.846 2.298-4.202 2.298-6.552v-1.963c0-5.595-4.313-10.301-9.801-10.748l-.952-.059c-5.936 0-10.807 4.819-10.807 10.807v1.963c0 2.35.782 4.706 2.239 6.552-2.016 2.239-3.191 5.095-3.191 8.12v1.958zm8.791-18.593c0-1.51 1.175-2.739 2.574-2.909l.394-.058c1.569 0 2.914 1.292 2.914 2.967v1.963c0 1.457-1.18 2.744-2.58 2.914h-.334c-1.623 0-2.968-1.292-2.968-2.914v-1.963zm-.952 16.636c0-1.963 1.569-3.696 3.526-3.867l.394-.053c2.127 0 3.866 1.792 3.866 3.92v1.957c0 2.015-1.569 3.696-3.531 3.92h-.335a3.893 3.893 0 0 1-3.92-3.92V770.5zm58.45-148.743v-1.191c0-5.6-4.415-10.115-10.116-10.115a10.151 10.151 0 0 0-10.168 10.168c0 6.494 4.61 9.366 8.679 11.253 4.659 2.08 4.659 3.42 4.659 4.76 0 1.93-1.388 3.324-3.372 3.324-1.835 0-3.27-1.489-3.27-3.324v-.994h-6.941v.994c0 5.654 4.558 10.265 10.211 10.265 5.802 0 10.317-4.516 10.317-10.265 0-6.296-4.414-9.12-8.732-11.157-4.606-2.08-4.606-3.569-4.606-4.856 0-1.739 1.484-3.223 3.223-3.223 1.782 0 3.17 1.383 3.17 3.17v1.191h6.945zm-76.405-195.389l-.027-.106-.101-1.41-.027.936a1.634 1.634 0 0 0-1.489-.957h-24.086v1.473c9.025 3.43 22.99 13.216 24.272 36.962l.25.75-.026.846h2.111c.952 0 1.707-.809 1.644-1.755l-2.234-32.24-.287-4.499zm-25.822 345.139v1.005c0 6.44 5.266 11.764 11.76 11.764 6.44 0 11.705-5.324 11.705-11.764v-17.636c0-6.499-5.265-11.817-11.706-11.817-6.493 0-11.759 5.318-11.759 11.817v1.957c0 6.5 5.266 11.759 11.76 11.759 1.345 0 2.685-.335 3.866-.723v4.643c0 2.132-1.74 3.925-3.867 3.925-2.186 0-3.92-1.793-3.92-3.925v-1.005h-7.839zm11.76-10.754c-2.187 0-3.92-1.792-3.92-3.92v-1.957a3.893 3.893 0 0 1 3.92-3.92c2.126 0 3.866 1.735 3.866 3.92v1.957c0 2.128-1.74 3.92-3.867 3.92zm82.44-4.926v-1.005c0-6.44-5.264-11.765-11.705-11.765-6.493 0-11.759 5.324-11.759 11.765v17.635c0 6.499 5.266 11.817 11.76 11.817 6.44 0 11.705-5.318 11.705-11.817V770.5c0-6.552-5.265-11.76-11.706-11.76-1.399 0-2.744.278-3.92.671v-4.59c0-2.132 1.734-3.924 3.92-3.924 2.127 0 3.867 1.792 3.867 3.925v1.005h7.839zm-11.705 10.753c2.127 0 3.867 1.792 3.867 3.92v1.957c0 2.186-1.74 3.92-3.867 3.92a3.893 3.893 0 0 1-3.92-3.92V770.5c0-2.128 1.734-3.92 3.92-3.92zM236.955 635.64h1.734c6.695 0 12.099-5.404 12.099-12.148 0-6.695-5.404-12.146-12.1-12.146h-8.673v34.706h6.94V635.64zm0-17.354h1.734c2.877 0 5.158 2.33 5.158 5.206 0 2.926-2.281 5.207-5.158 5.207h-1.734v-10.413zm16.678 164.98v-39.201H238.04v7.844h7.812v31.357h7.781zm55.204-228.616a1.634 1.634 0 0 0-1.558 1.638v.792h46.651v-.792c0-.878-.691-1.601-1.563-1.638-6.584-.287-12.45-2.643-12.45-13.243v-104.21c0-.56-.282-1.075-.75-1.378L323.02 425.33c-1.271-.83-2.84.346-2.479 1.819.426 1.74.564 3.691.564 6.206v108.051c0 10.6-5.706 12.956-12.27 13.243zm-79.342-8.537l16.534 10.557c1.271.813 2.83-.362 2.463-1.824-.436-1.76-.58-3.729-.58-6.27V442.954l.026-16.476c0-.91-.733-1.649-1.643-1.649h-16.071a1.64 1.64 0 0 0-1.644 1.643v117.47h.154v.782c0 .558.288 1.085.76 1.388zm63.867 65.233v34.706h6.94V635.64h2.229l.697-.047 3.818 10.46h7.34l-4.76-13.04c2.824-2.382 4.51-5.85 4.51-9.52 0-6.695-5.404-12.146-12.1-12.146h-8.674zm13.833 12.147c0 2.925-2.281 5.206-5.158 5.206h-1.734v-10.413h1.734c2.877 0 5.158 2.33 5.158 5.207zM162.92 556.288c0-.878-.691-1.601-1.563-1.638-6.584-.287-12.45-2.643-12.45-13.243v-104.21c0-.56-.282-1.075-.75-1.378L132.01 425.33c-1.27-.83-2.84.346-2.478 1.819.426 1.74.564 3.691.564 6.206v108.051c0 10.6-5.707 12.956-12.27 13.243a1.634 1.634 0 0 0-1.558 1.638v.792h46.652v-.792zm137.62 509.091S600 866.514 600 585.231h-.118l.091-283.473-57.746 57.745v244.832c0 227.148-241.794 387.732-241.794 387.732h-.872s-117.07-77.769-188.298-201.599l-37.659 37.659c88.666 146.119 225.856 237.252 225.856 237.252h1.08zM18.38 111.916c1.432-1.092 3.442-1.639 6.028-1.639 2.679 0 4.759.652 6.24 1.957 1.48 1.304 2.22 3.132 2.22 5.482h10.576c0-3.078-.793-5.828-2.38-8.25-1.586-2.42-3.813-4.294-6.68-5.622-2.867-1.327-6.134-1.992-9.8-1.992-3.643 0-6.928.611-9.854 1.833-2.926 1.223-5.17 2.921-6.734 5.095-1.563 2.173-2.343 4.647-2.343 7.42 0 5.335 2.914 9.578 8.742 12.727 2.139 1.152 5.042 2.321 8.708 3.507 3.667 1.187 6.205 2.315 7.615 3.384 1.41 1.07 2.115 2.604 2.115 4.601 0 1.833-.705 3.262-2.115 4.283-1.41 1.023-3.373 1.534-5.887 1.534-6.77 0-10.153-2.831-10.153-8.496H4.066c0 3.314.851 6.229 2.556 8.743 1.704 2.515 4.178 4.494 7.42 5.94 3.244 1.445 6.84 2.168 10.789 2.168 5.686 0 10.211-1.263 13.572-3.789 3.36-2.526 5.041-6.011 5.041-10.453 0-3.995-1.374-7.333-4.124-10.012-2.75-2.68-7.134-4.924-13.15-6.734-3.267-.987-5.741-2.044-7.421-3.173-1.68-1.128-2.52-2.526-2.52-4.195 0-1.786.716-3.225 2.15-4.319zm70.637 24.45v-33.81H78.406v34.162c-.095 6.252-3.114 9.377-9.06 9.377-2.845 0-5.072-.77-6.681-2.31-1.61-1.538-2.415-3.988-2.415-7.35v-33.878H49.674v34.196c.07 5.547 1.869 9.906 5.394 13.079 3.525 3.173 8.285 4.76 14.278 4.76 6.087 0 10.887-1.634 14.4-4.901 3.514-3.267 5.271-7.709 5.271-13.326zM593.29 88.701h-11.106l-6.943 10.929h8.283l9.766-10.929zm3.385 22.421v-8.566h-34.337v51.33h34.407v-8.497h-23.831v-13.749h20.306v-8.285h-20.306v-12.233h23.76zm-516.4-45.939h10.577V22.421h15.723v-8.566H64.764v8.566h15.511v42.763zM59.722 0H48.617l-6.945 10.929h8.284L59.722 0zm3.454 56.688H39.345v-13.75h20.306v-8.284H39.345V22.421h23.76v-8.566H28.77v51.329h34.407v-8.496zm433.6-25.277l20.588 33.773h10.576v-51.33h-10.542v33.844l-20.622-33.843H486.2v51.329h10.576V31.411zM377.073 153.393l-11.106-20.976c3.08-1.386 5.377-3.249 6.893-5.588 1.515-2.338 2.273-5.258 2.273-8.76 0-4.936-1.644-8.755-4.936-11.458-3.29-2.702-7.967-4.054-14.03-4.054h-19.072v51.33h10.576v-18.791h8.425l9.625 18.79h11.352v-.493zm-14.702-28.89c-1.456 1.351-3.513 2.026-6.168 2.026h-8.532v-15.406h8.495c2.845 0 4.954.694 6.33 2.08 1.374 1.387 2.06 3.291 2.06 5.712 0 2.374-.727 4.236-2.185 5.588zm133.25 29.383h10.577v-51.33h-10.576v51.33zm-46.31-51.33v51.33h10.576v-18.79h8.424l9.625 18.79h11.352v-.493l-11.106-20.976c3.08-1.386 5.377-3.249 6.894-5.588 1.515-2.338 2.272-5.258 2.272-8.76 0-4.936-1.644-8.755-4.935-11.458-3.29-2.702-7.968-4.054-14.031-4.054H449.31zm27.461 16.359c0 2.374-.727 4.236-2.186 5.588-1.456 1.351-3.513 2.026-6.168 2.026h-8.531v-15.406h8.495c2.844 0 4.953.694 6.33 2.08 1.373 1.387 2.06 3.291 2.06 5.712zm-192.608-7.792v-8.566h-34.337v51.33h34.408v-8.497h-23.832v-13.749h20.307v-8.285h-20.307v-12.233h23.761zm263.907-45.939h10.576V22.421h15.723v-8.566h-41.81v8.566h15.511v42.763zm-13.537 75.976l-11.564-38.603h-11.74l17.804 51.33h11.033l17.875-51.33h-11.775l-11.633 38.603zM191.715 61.306c3.149-2.538 4.724-6.275 4.724-11.21 0-2.891-.758-5.335-2.274-7.333-1.516-1.998-3.59-3.325-6.222-3.984 2.303-.892 4.1-2.297 5.394-4.213 1.292-1.915 1.939-4.13 1.939-6.645 0-4.606-1.61-8.102-4.83-10.489-3.22-2.384-7.944-3.577-14.172-3.577h-17.98v51.329h19.954c5.828-.046 10.318-1.34 13.467-3.878zm-22.844-38.885h7.403c2.914 0 5.046.511 6.398 1.534 1.352 1.022 2.028 2.697 2.028 5.023 0 4.16-2.668 6.288-8.003 6.381h-7.826V22.421zm0 34.267V42.833h9.695c4.865.07 7.297 2.457 7.297 7.157 0 2.092-.7 3.732-2.098 4.918s-3.343 1.78-5.834 1.78h-9.06zm82.953-42.833h-10.576v51.329h10.576v-51.33zm-130.23 40.753h18.544l3.56 10.576h11.247l-19.214-51.33h-9.8l-19.108 51.33h11.246l3.526-10.576zm9.237-27.78l6.452 19.213H124.45l6.381-19.213zm99.053 127.058h10.576v-51.33h-10.576v51.33zm59.629-51.33v34.197c.07 5.547 1.867 9.906 5.393 13.079 3.525 3.173 8.285 4.76 14.278 4.76 6.086 0 10.887-1.634 14.402-4.901 3.513-3.267 5.27-7.709 5.27-13.326v-33.808h-10.612v34.16c-.093 6.253-3.115 9.378-9.06 9.378-2.844 0-5.07-.77-6.68-2.31-1.611-1.538-2.415-3.988-2.415-7.35v-33.878h-10.576zm-158.114 28.89c3.443-2.901 5.165-6.867 5.165-11.897 0-3.314-.787-6.269-2.362-8.866-1.575-2.596-3.825-4.6-6.751-6.01-2.926-1.411-6.317-2.116-10.17-2.116H97.257v51.33h10.576V135.8h9.271c6.087 0 10.853-1.45 14.295-4.354zm-23.566-20.323h9.694c2.61.048 4.654.847 6.135 2.398 1.48 1.55 2.22 3.585 2.22 6.099 0 2.444-.735 4.325-2.203 5.64-1.469 1.317-3.602 1.974-6.398 1.974h-9.448v-16.11zm75.74 42.763h10.576v-18.79h8.425l9.625 18.79h11.35v-.493l-11.105-20.976c3.079-1.386 5.375-3.249 6.894-5.588 1.515-2.338 2.272-5.258 2.272-8.76 0-4.936-1.644-8.755-4.935-11.458-3.292-2.702-7.967-4.054-14.03-4.054h-19.072v51.33zm10.576-42.763h8.496c2.843 0 4.952.694 6.327 2.08 1.373 1.387 2.062 3.291 2.062 5.712 0 2.374-.729 4.236-2.185 5.588-1.457 1.351-3.514 2.026-6.169 2.026h-8.531v-15.406zM327.62 56c-1.41 1.023-3.372 1.534-5.886 1.534-6.77 0-10.153-2.831-10.153-8.496h-10.613c0 3.314.852 6.229 2.557 8.743 1.704 2.515 4.178 4.494 7.421 5.94 3.243 1.445 6.84 2.168 10.788 2.168 5.687 0 10.211-1.263 13.571-3.79 3.362-2.525 5.043-6.01 5.043-10.452 0-3.995-1.376-7.333-4.126-10.012-2.75-2.68-7.133-4.924-13.149-6.734-3.267-.987-5.741-2.045-7.421-3.173s-2.52-2.526-2.52-4.195c0-1.786.717-3.225 2.15-4.319 1.434-1.092 3.442-1.639 6.029-1.639 2.679 0 4.758.652 6.239 1.957 1.48 1.304 2.221 3.132 2.221 5.482h10.577c0-3.078-.794-5.828-2.38-8.25-1.587-2.42-3.813-4.295-6.682-5.622-2.866-1.328-6.134-1.992-9.8-1.992-3.642 0-6.926.611-9.853 1.833-2.925 1.223-5.171 2.92-6.732 5.094-1.564 2.174-2.345 4.648-2.345 7.42 0 5.336 2.913 9.579 8.743 12.727 2.137 1.153 5.04 2.322 8.706 3.508 3.667 1.187 6.205 2.315 7.615 3.384 1.41 1.07 2.115 2.604 2.115 4.601 0 1.833-.705 3.262-2.115 4.283zm-91.663.688h-22.454V13.855h-10.576v51.329h33.03v-8.496zM284.682 56c-1.41 1.023-3.372 1.534-5.886 1.534-6.769 0-10.153-2.831-10.153-8.496H258.03c0 3.314.852 6.229 2.557 8.743 1.704 2.515 4.178 4.494 7.421 5.94 3.243 1.445 6.84 2.168 10.788 2.168 5.687 0 10.211-1.263 13.571-3.79 3.363-2.525 5.043-6.01 5.043-10.452 0-3.995-1.376-7.333-4.126-10.012-2.75-2.68-7.133-4.924-13.149-6.734-3.267-.987-5.741-2.045-7.421-3.173s-2.52-2.526-2.52-4.195c0-1.786.717-3.225 2.15-4.319 1.434-1.092 3.442-1.639 6.029-1.639 2.679 0 4.758.652 6.239 1.957 1.48 1.304 2.222 3.132 2.222 5.482h10.576c0-3.078-.794-5.828-2.38-8.25-1.587-2.42-3.813-4.295-6.682-5.622-2.866-1.328-6.134-1.992-9.8-1.992-3.642 0-6.926.611-9.853 1.833-2.925 1.223-5.171 2.92-6.732 5.094-1.564 2.174-2.345 4.648-2.345 7.42 0 5.336 2.913 9.579 8.743 12.727 2.137 1.153 5.04 2.322 8.706 3.508 3.667 1.187 6.205 2.315 7.615 3.384 1.41 1.07 2.115 2.604 2.115 4.601 0 1.833-.705 3.262-2.115 4.283zm95.787.688h-23.831v-13.75h20.306v-8.284h-20.306V22.421h23.76v-8.566h-34.336v51.329h34.407v-8.496zM177.801 145.39H153.97v-13.749h20.306v-8.285H153.97v-12.233h23.76v-8.566h-34.336v51.33H177.8v-8.497zm-3.455-56.688h-11.105l-6.945 10.929h8.285l9.765-10.929zm307.092-32.014h-23.832v-13.75h20.306v-8.284h-20.306V22.421h23.761v-8.566H447.03v51.329h34.408v-8.496zm-85.632-5.535l-1.058-24.184 13.82 38.215h7.262l13.853-38.25-1.057 24.219v14.031h10.612v-51.33h-13.89l-13.114 37.229-13.185-37.228h-13.82v51.329h10.577V51.153zm37.562 53.52c-2.927-1.411-6.318-2.116-10.171-2.116h-20.024v51.33h10.576V135.8h9.27c6.088 0 10.852-1.45 14.297-4.354 3.443-2.902 5.163-6.868 5.163-11.898 0-3.314-.787-6.269-2.36-8.866-1.576-2.596-3.826-4.6-6.751-6.01zm-3.773 20.587c-1.469 1.317-3.602 1.974-6.398 1.974h-9.448v-16.11h9.693c2.61.047 4.654.846 6.135 2.397 1.48 1.55 2.222 3.585 2.222 6.099 0 2.444-.736 4.325-2.204 5.64zm8.533 1017.334c-3.255-3.148-7.458-4.724-12.605-4.724-3.618 0-6.797.812-9.534 2.434-2.74 1.622-4.837 3.912-6.294 6.873-1.458 2.962-2.185 6.336-2.185 10.12v.457c0 6.063 1.64 10.858 4.917 14.383 3.28 3.525 7.667 5.288 13.167 5.288s9.883-1.767 13.15-5.306c3.266-3.536 4.9-8.231 4.9-14.083l-.07-2.61c-.375-5.404-2.193-9.68-5.446-12.832zm-6.753 23.776c-1.385 1.893-3.313 2.842-5.781 2.842-2.538 0-4.488-.959-5.852-2.879-1.362-1.918-2.045-4.69-2.045-8.314 0-4.07.683-7.078 2.045-9.02 1.364-1.942 3.291-2.913 5.781-2.913 2.516 0 4.467.977 5.852 2.929 1.388 1.954 2.081 4.71 2.081 8.263 0 4.166-.693 7.196-2.08 9.092zm-48.79-17.69c1.208-1.73 3.001-2.594 5.374-2.594 1.928 0 3.48.62 4.654 1.859 1.176 1.24 1.786 2.854 1.833 4.839H404c-.049-4.513-1.511-8.127-4.39-10.842-2.879-2.714-6.704-4.072-11.475-4.072-5.453 0-9.742 1.753-12.868 5.254-3.125 3.501-4.688 8.191-4.688 14.065v.671c0 6.11 1.573 10.899 4.724 14.366 3.149 3.467 7.45 5.199 12.903 5.199 2.913 0 5.576-.594 7.985-1.78 2.408-1.185 4.305-2.855 5.693-5.007 1.386-2.15 2.091-4.516 2.116-7.103h-9.555c-.047 1.716-.657 3.092-1.833 4.126-1.175 1.033-2.702 1.55-4.583 1.55-2.444 0-4.265-.86-5.464-2.578-1.198-1.718-1.799-4.542-1.799-8.473v-1.06c0-3.883.607-6.69 1.817-8.42zm-24.398 17.57c-1.644 0-3.014.506-4.106 1.516-1.094 1.01-1.64 2.326-1.64 3.948 0 1.6.54 2.897 1.622 3.896 1.08 1 2.456 1.499 4.124 1.499 1.692 0 3.08-.5 4.16-1.499 1.082-1 1.622-2.297 1.622-3.896 0-1.622-.546-2.937-1.638-3.948-1.094-1.01-2.474-1.515-4.144-1.515zm133.422-28.38c-4.96 0-8.78 1.94-11.459 5.818-1.833-3.878-5.205-5.818-10.116-5.818-4.608 0-8.262 1.658-10.965 4.972l-.317-4.266h-9.554v38.144h10.189v-26.968c1.291-2.397 3.384-3.596 6.275-3.596 2.091 0 3.572.494 4.442 1.48.868.988 1.303 2.585 1.303 4.795v24.289h10.19l-.036-26.192c1.176-2.915 3.291-4.372 6.345-4.372 2.14 0 3.632.5 4.478 1.497.846 1.001 1.27 2.58 1.27 4.742v24.325h10.223v-24.36c0-4.84-1.011-8.466-3.032-10.876-2.022-2.409-5.1-3.614-9.236-3.614zm-352.86 38.85h10.223v-38.144h-10.224v38.144zm-11.194-8.602c-.541-.61-.811-1.622-.811-3.032v-19.037h6.522v-7.473h-6.522v-9.378h-10.189v9.378h-5.57v7.473h5.57v20.554c.141 7.216 3.784 10.822 10.93 10.822 2.114 0 4.17-.306 6.168-.917v-7.72c-.87.166-1.868.247-2.996.247-1.528 0-2.563-.305-3.102-.917zm39.503-19.438c1.21-1.73 3.002-2.594 5.376-2.594 1.927 0 3.479.62 4.654 1.859 1.174 1.24 1.786 2.854 1.833 4.839h9.554c-.047-4.513-1.511-8.127-4.39-10.842-2.878-2.714-6.704-4.072-11.474-4.072-5.453 0-9.742 1.753-12.868 5.254-3.126 3.501-4.689 8.191-4.689 14.065v.671c0 6.11 1.575 10.899 4.724 14.366 3.15 3.467 7.45 5.199 12.903 5.199 2.914 0 5.575-.594 7.985-1.78 2.41-1.185 4.307-2.855 5.694-5.007 1.386-2.15 2.09-4.516 2.115-7.103h-9.554c-.047 1.716-.659 3.092-1.833 4.126-1.175 1.033-2.703 1.55-4.583 1.55-2.445 0-4.266-.86-5.464-2.578s-1.798-4.542-1.798-8.473v-1.06c0-3.883.604-6.69 1.815-8.42zm-23.198-25.227c-1.763 0-3.156.493-4.178 1.48-1.022.988-1.533 2.244-1.533 3.772 0 1.55.523 2.82 1.568 3.807 1.046.987 2.427 1.48 4.143 1.48 1.715 0 3.096-.493 4.142-1.48 1.045-.987 1.569-2.256 1.569-3.807 0-1.528-.518-2.784-1.551-3.772-1.035-.987-2.422-1.48-4.16-1.48zm-42.094 0c-1.763 0-3.156.493-4.178 1.48-1.022.988-1.533 2.244-1.533 3.772 0 1.55.523 2.82 1.568 3.807 1.046.987 2.427 1.48 4.143 1.48 1.715 0 3.096-.493 4.142-1.48 1.045-.987 1.57-2.256 1.57-3.807 0-1.528-.519-2.784-1.552-3.772-1.034-.987-2.421-1.48-4.16-1.48zm-5.112 53.267h10.224v-38.144H96.654v38.144zm241.35-21.223c-1.739-.634-3.878-1.202-6.416-1.71-2.539-.504-4.342-1.104-5.411-1.797s-1.604-1.604-1.604-2.732c0-1.198.47-2.185 1.41-2.96.939-.777 2.269-1.165 3.983-1.165 1.998 0 3.467.475 4.408 1.428.938.95 1.41 2.158 1.41 3.614h10.187c0-3.642-1.45-6.603-4.353-8.884s-6.775-3.42-11.616-3.42c-4.537 0-8.209 1.134-11.017 3.402s-4.212 5.095-4.212 8.479c0 5.806 4.534 9.66 13.607 11.563 2.726.564 4.706 1.205 5.941 1.92 1.233.72 1.85 1.7 1.85 2.945 0 1.199-.5 2.168-1.497 2.907-1 .741-2.474 1.112-4.426 1.112-2.091 0-3.76-.481-5.006-1.446-1.245-.963-1.916-2.35-2.009-4.16h-9.66c0 2.304.706 4.448 2.116 6.434 1.41 1.986 3.354 3.55 5.834 4.688 2.48 1.14 5.318 1.71 8.513 1.71 4.724 0 8.58-1.076 11.564-3.225 2.985-2.152 4.478-4.964 4.478-8.443 0-4.865-2.692-8.285-8.074-10.26zm-40.383 21.223h10.224v-38.144H297.62v38.144zm5.11-53.267c-1.762 0-3.154.493-4.175 1.48-1.023.988-1.535 2.244-1.535 3.772 0 1.55.524 2.82 1.57 3.807 1.045.987 2.427 1.48 4.14 1.48 1.717 0 3.097-.493 4.145-1.48 1.045-.987 1.567-2.256 1.567-3.807 0-1.528-.516-2.784-1.551-3.772-1.034-.987-2.42-1.48-4.16-1.48zm-38.357 27.92c0-4.276-1.38-7.598-4.142-9.96-2.762-2.362-6.493-3.543-11.192-3.543-3.103 0-5.9.536-8.39 1.604-2.493 1.072-4.42 2.546-5.782 4.426-1.364 1.88-2.045 3.924-2.045 6.134h10.187c0-1.434.488-2.562 1.465-3.384.975-.822 2.32-1.235 4.035-1.235 1.952 0 3.378.53 4.285 1.587.904 1.058 1.355 2.468 1.355 4.23v2.186h-4.687c-5.665.025-9.994 1.116-12.992 3.278-2.995 2.163-4.494 5.266-4.494 9.307 0 3.292 1.227 6.017 3.684 8.179 2.456 2.163 5.552 3.243 9.29 3.243 3.948 0 7.155-1.374 9.622-4.124.212 1.364.552 2.502 1.024 3.419h10.294v-.598c-.987-1.858-1.493-4.595-1.517-8.215v-16.533zm-10.224 14.56c-.61 1.128-1.55 2.026-2.82 2.697-1.269.669-2.655 1.005-4.16 1.005-1.551 0-2.772-.411-3.666-1.235-.893-.822-1.34-1.867-1.34-3.136l.036-.6c.329-3.526 3.044-5.289 8.143-5.289h3.807v6.557zm27.236-22.809l-.282-4.548h-9.625v38.144h10.19v-24.96c1.198-2.608 3.724-3.912 7.578-3.912 1.058 0 2.28.095 3.666.282l.141-9.8a10.652 10.652 0 0 0-3.173-.46c-3.618 0-6.45 1.753-8.495 5.254zm-68.357-5.254c-3.972 0-7.191 1.481-9.659 4.442l-.352-3.736h-9.448v52.81h10.188v-17.98c2.373 2.68 5.487 4.019 9.339 4.019 4.537 0 8.139-1.767 10.806-5.306 2.667-3.536 4-8.241 4-14.118v-.53c0-6.11-1.3-10.904-3.912-14.383-2.606-3.477-6.26-5.218-10.962-5.218zm-2.611 31.342c-3.194 0-5.415-1.257-6.66-3.773v-15.616c1.198-2.444 3.395-3.667 6.591-3.667 2.398 0 4.223.963 5.484 2.89 1.257 1.929 1.885 4.666 1.885 8.214 0 7.967-2.433 11.952-7.3 11.952z" fill="#003160"/></svg>